<svg width="33" height="37" viewBox="0 0 33 37" fill="none" xmlns="http://www.w3.org/2000/svg">
<path d="M21.7693 28.6536V29.9229C21.7693 31.2694 21.2143 32.5608 20.2263 33.5129C19.2383 34.4651 17.8983 35 16.5011 35C15.1038 35 13.7638 34.4651 12.7758 33.5129C11.7879 32.5608 11.2328 31.2694 11.2328 29.9229V28.6536M30.6331 26.0711C28.5192 23.5778 27.0268 22.3085 27.0268 15.4345C27.0268 9.13971 23.6913 6.89705 20.9461 5.80784C20.5814 5.66346 20.2382 5.33186 20.127 4.97091C19.6455 3.39145 18.2955 2 16.501 2C14.7065 2 13.3557 3.39224 12.8791 4.9725C12.7679 5.33742 12.4247 5.66346 12.06 5.80784C9.31145 6.89863 5.97928 9.13336 5.97928 15.4345C5.97516 22.3085 4.48277 23.5778 2.36888 26.0711C1.49303 27.104 2.26022 28.6549 3.79213 28.6549H29.2181C30.7417 28.6549 31.504 27.0992 30.6331 26.0711Z" stroke="#3C3C3C" stroke-width="2.5" stroke-linecap="round" stroke-linejoin="round"/>
</svg>
